<?xml version="1.0" standalone="no"?>
<!DOCTYPE svg PUBLIC "-//W3C//DTD SVG 20010904//EN"
 "http://www.w3.org/TR/2001/REC-SVG-20010904/DTD/svg10.dtd">
<svg version="1.0" xmlns="http://www.w3.org/2000/svg"
 width="332.000000pt" height="67.000000pt" viewBox="0 0 332.000000 67.000000"
 preserveAspectRatio="xMidYMid meet">

<g transform="translate(0.000000,67.000000) scale(0.100000,-0.100000)"
fill="#000000" stroke="none">
<path d="M2915 528 c-81 -28 -145 -120 -145 -208 0 -65 43 -147 97 -184 50
-35 137 -46 198 -26 152 50 197 260 78 372 -56 53 -152 73 -228 46z m165 -33
c71 -37 116 -119 107 -196 -12 -101 -94 -172 -198 -172 -66 0 -107 20 -152 76
-42 51 -50 143 -18 205 48 95 167 134 261 87z"/>
<path d="M2859 383 c-12 -16 -12 -17 1 -7 8 7 24 14 35 17 19 4 19 5 -1 6 -12
0 -28 -7 -35 -16z"/>
<path d="M3108 384 c12 -8 22 -23 23 -32 0 -11 2 -13 6 -4 6 14 -24 52 -41 52
-6 0 0 -7 12 -16z"/>
<path d="M2850 331 c0 -6 4 -13 10 -16 6 -3 7 1 4 9 -7 18 -14 21 -14 7z"/>
<path d="M2893 303 c9 -2 23 -2 30 0 6 3 -1 5 -18 5 -16 0 -22 -2 -12 -5z"/>
<path d="M3068 303 c6 -2 18 -2 25 0 6 3 1 5 -13 5 -14 0 -19 -2 -12 -5z"/>
<path d="M132 460 c-79 -48 -83 -189 -7 -248 19 -15 42 -22 72 -22 38 0 50 5
80 35 33 33 37 55 9 55 -7 0 -22 -11 -34 -25 -29 -33 -85 -35 -106 -2 -27 41
-24 139 5 168 27 27 80 23 94 -8 6 -14 18 -23 32 -23 43 0 19 54 -32 76 -47
19 -74 18 -113 -6z"/>
<path d="M1483 460 c-39 -23 -50 -58 -31 -97 10 -21 27 -33 68 -46 66 -22 82
-34 78 -60 -5 -33 -55 -41 -103 -17 -34 17 -41 18 -54 6 -12 -13 -9 -17 20
-35 58 -36 165 -21 183 24 12 31 6 72 -13 89 -10 9 -42 24 -71 34 -61 19 -81
42 -61 66 17 20 71 21 97 2 13 -10 23 -11 31 -4 21 17 15 28 -22 44 -47 19
-84 18 -122 -6z"/>
<path d="M420 330 l0 -140 95 0 c88 0 95 1 95 20 0 18 -7 20 -65 20 l-65 0 0
120 0 120 -30 0 -30 0 0 -140z"/>
<path d="M730 330 l0 -140 25 0 25 0 0 140 0 140 -25 0 -25 0 0 -140z"/>
<path d="M910 330 c0 -133 1 -140 20 -140 19 0 20 7 20 96 0 114 0 114 86 -11
45 -66 63 -85 79 -83 19 3 20 11 23 141 l3 137 -25 0 c-25 0 -25 -1 -28 -91
l-3 -91 -63 91 c-50 73 -68 91 -87 91 l-25 0 0 -140z"/>
<path d="M1270 330 l0 -140 25 0 25 0 0 140 0 140 -25 0 -25 0 0 -140z"/>
<path d="M1770 330 l0 -140 100 0 c93 0 100 1 100 20 0 18 -7 20 -76 20 l-75
0 3 43 3 42 48 3 c32 2 47 8 47 17 0 9 -15 15 -47 17 l-48 3 0 40 0 40 68 3
c51 2 67 6 67 17 0 12 -19 15 -95 15 l-95 0 0 -140z"/>
<path d="M2080 329 l0 -140 28 3 c26 3 27 6 30 66 3 62 4 63 29 60 28 -3 33
-10 63 -80 16 -40 24 -48 45 -48 14 0 25 2 25 5 0 3 -11 33 -25 66 l-26 60 26
20 c19 16 25 30 25 59 0 57 -24 70 -132 70 l-88 0 0 -141z m158 99 c18 -18 14
-56 -7 -68 -11 -5 -36 -10 -55 -10 -36 0 -36 0 -36 45 l0 45 43 0 c24 0 48 -5
55 -12z"/>
<path d="M2412 458 c3 -7 24 -70 47 -140 41 -123 44 -128 70 -128 27 0 30 5
71 128 24 70 45 133 48 140 3 10 -2 13 -18 10 -20 -2 -28 -18 -56 -102 -19
-54 -35 -101 -38 -103 -2 -2 -19 42 -38 99 -32 96 -37 103 -63 106 -20 3 -26
0 -23 -10z"/>
</g>
</svg>
